<?xml version="1.0" encoding="utf-8"?>
<!-- Generator: Adobe Illustrator 18.0.0, SVG Export Plug-In . SVG Version: 6.00 Build 0)  -->
<!DOCTYPE svg PUBLIC "-//W3C//DTD SVG 1.1//EN" "http://www.w3.org/Graphics/SVG/1.1/DTD/svg11.dtd">
<svg version="1.1" xmlns="http://www.w3.org/2000/svg" xmlns:xlink="http://www.w3.org/1999/xlink" x="0px" y="0px"
	 viewBox="0 0 1280 800" enable-background="new 0 0 1280 800" xml:space="preserve">
<g id="Layer_2" display="none">
	<g display="inline">
		<g>
			<path fill="#75D2FC" d="M352,451.1l122.3-122.3c5.1-5.1,5.1-13.3,0-18.4L352.4,188.5l48.3-48.3l140.1,140.1
				c21.7,21.7,21.7,56.9,0,78.6L401,498.6L352,451.1z"/>
			<path fill="#75D2FC" d="M928,188.5L805.7,310.8c-5.1,5.1-5.1,13.3,0,18.4l121.9,121.9l-48.3,48.3L739.2,359.3
				c-21.7-21.7-21.7-56.9,0-78.6L879,140.9L928,188.5z"/>
			<path fill="#75D2FC" d="M508.3,32l122.3,122.3c5.1,5.1,13.3,5.1,18.4,0L770.9,32.4l48.3,48.3L679.1,220.8
				c-21.7,21.7-56.9,21.7-78.6,0L460.8,81L508.3,32z"/>
			<path fill="#75D2FC" d="M771.7,608L649.4,485.7c-5.1-5.1-13.3-5.1-18.4,0L509.1,607.6l-48.3-48.3l140.1-140.1
				c21.7-21.7,56.9-21.7,78.6,0L819.2,559L771.7,608z"/>
		</g>
	</g>
</g>
<g id="Layer_2_copy">
	<g>
		<g>
			<path fill="#004561" d="M352,451.1l122.3-122.3c5.1-5.1,5.1-13.3,0-18.4L352.4,188.5l48.3-48.3l140.1,140.1
				c21.7,21.7,21.7,56.9,0,78.6L401,498.6L352,451.1z"/>
			<path fill="#004561" d="M928,188.5L805.7,310.8c-5.1,5.1-5.1,13.3,0,18.4l121.9,121.9l-48.3,48.3L739.2,359.3
				c-21.7-21.7-21.7-56.9,0-78.6L879,140.9L928,188.5z"/>
			<path fill="#004561" d="M508.3,32l122.3,122.3c5.1,5.1,13.3,5.1,18.4,0L770.9,32.4l48.3,48.3L679.1,220.8
				c-21.7,21.7-56.9,21.7-78.6,0L460.8,81L508.3,32z"/>
			<path fill="#004561" d="M771.7,608L649.4,485.7c-5.1-5.1-13.3-5.1-18.4,0L509.1,607.6l-48.3-48.3l140.1-140.1
				c21.7-21.7,56.9-21.7,78.6,0L819.2,559L771.7,608z"/>
		</g>
	</g>
</g>
</svg>
